<svg width="43" height="42" viewBox="0 0 43 42" fill="none" xmlns="http://www.w3.org/2000/svg">
<path d="M2.37777 22.2167L8.7561 26.875L6.33377 34.3767C5.94231 35.5402 5.93735 36.799 6.31963 37.9656C6.70191 39.1321 7.45095 40.1439 8.4551 40.85C9.44204 41.5788 10.6381 41.9692 11.8649 41.9631C13.0918 41.957 14.2838 41.5546 15.2634 40.816L21.5002 36.2257L27.7388 40.8106C28.724 41.5352 29.9135 41.9288 31.1365 41.9348C32.3594 41.9407 33.5528 41.5588 34.5449 40.8437C35.5371 40.1287 36.277 39.1175 36.6582 37.9555C37.0395 36.7935 37.0424 35.5405 36.6667 34.3767L34.2444 26.875L40.6227 22.2167C41.6066 21.4973 42.3379 20.4855 42.7124 19.3256C43.0868 18.1658 43.0851 16.9172 42.7076 15.7584C42.3301 14.5996 41.596 13.5897 40.6102 12.873C39.6244 12.1562 38.4373 11.7694 37.2185 11.7677H29.3836L27.006 4.35733C26.6321 3.19088 25.8975 2.17332 24.9079 1.45137C23.9184 0.729417 22.7251 0.340393 21.5002 0.340393C20.2753 0.340393 19.0821 0.729417 18.0925 1.45137C17.103 2.17332 16.3683 3.19088 15.9944 4.35733L13.6169 11.7677H5.7891C4.57031 11.7694 3.38323 12.1562 2.39744 12.873C1.41164 13.5897 0.677547 14.5996 0.300008 15.7584C-0.0775311 16.9172 -0.0792021 18.1658 0.295233 19.3256C0.669669 20.4855 1.40106 21.4973 2.38493 22.2167H2.37777Z" fill="#372E24"/>
</svg>
