<svg width="43" height="43" viewBox="0 0 43 43" fill="none" xmlns="http://www.w3.org/2000/svg">
<path d="M40.0015 33.0061C41.3059 34.8587 42.999 36.9997 42.999 38.5208C42.999 39.7088 42.5271 40.8481 41.6871 41.6881C40.8471 42.5281 39.7078 43 38.5198 43C37.3319 43 36.1926 42.5281 35.3526 41.6881C34.5126 40.8481 34.0406 39.7088 34.0406 38.5208C34.0406 37.1323 35.7624 34.9232 37.0721 33.0222C37.2362 32.7866 37.4546 32.5938 37.7087 32.4601C37.9629 32.3265 38.2455 32.2559 38.5327 32.2543C38.8198 32.2528 39.1031 32.3202 39.3588 32.4511C39.6144 32.5819 39.8349 32.7723 40.0015 33.0061ZM38.4302 24.8397L22.8929 40.377C21.2115 42.0544 18.9335 42.9963 16.5585 42.9963C14.1835 42.9963 11.9054 42.0544 10.224 40.377L2.62377 32.775C0.943798 31.095 0 28.8164 0 26.4405C0 24.0647 0.943798 21.7861 2.62377 20.1061L12.8524 9.87568L7.7354 4.69777C7.41042 4.35811 7.23196 3.90434 7.23848 3.4343C7.245 2.96427 7.43599 2.51562 7.77026 2.18511C8.10453 1.8546 8.55531 1.6687 9.02539 1.6675C9.49547 1.6663 9.94719 1.84989 10.2831 2.17868L15.3858 7.34585L18.1593 4.56877L16.6489 3.05839C16.3226 2.72048 16.142 2.2679 16.1461 1.79813C16.1502 1.32836 16.3386 0.87899 16.6708 0.546801C17.003 0.214611 17.4523 0.0261836 17.9221 0.0221014C18.3919 0.0180193 18.8444 0.198609 19.1824 0.524976L42.474 23.8166C42.6451 23.9819 42.7816 24.1796 42.8755 24.3982C42.9694 24.6168 43.0189 24.8519 43.0209 25.0898C43.023 25.3277 42.9777 25.5636 42.8876 25.7838C42.7975 26.004 42.6645 26.204 42.4962 26.3723C42.328 26.5405 42.128 26.6735 41.9078 26.7636C41.6876 26.8537 41.4517 26.899 41.2138 26.897C40.9759 26.8949 40.7408 26.8455 40.5222 26.7516C40.3036 26.6577 40.1059 26.5212 39.9406 26.3501L38.4302 24.8397ZM35.8968 22.3063L20.6927 7.10218L17.9031 9.8936L26.3562 18.4542C26.5397 18.6171 26.6877 18.816 26.7911 19.0385C26.8946 19.2611 26.9512 19.5025 26.9575 19.7478C26.9638 19.9931 26.9197 20.2371 26.8278 20.4646C26.7359 20.6921 26.5983 20.8984 26.4234 21.0705C26.2486 21.2427 26.0402 21.3771 25.8113 21.4654C25.5823 21.5537 25.3377 21.5941 25.0925 21.5839C24.8473 21.5738 24.6068 21.5134 24.386 21.4065C24.1651 21.2996 23.9685 21.1485 23.8084 20.9625L15.3715 12.4252L5.15898 22.6377C4.65977 23.1369 4.26377 23.7294 3.99359 24.3816C3.72342 25.0338 3.58436 25.7328 3.58436 26.4387C3.58436 27.1447 3.72342 27.8437 3.99359 28.4959C4.26377 29.1481 4.65977 29.7406 5.15898 30.2398L12.7592 37.8418C13.7684 38.8478 15.1353 39.4127 16.5603 39.4127C17.9852 39.4127 19.3521 38.8478 20.3613 37.8418L35.8968 22.3063Z" fill="#372E24"/>
</svg>
