<svg width="63" height="63" viewBox="0 0 63 63" fill="none" xmlns="http://www.w3.org/2000/svg">
<g clip-path="url(#clip0_51_2159)">
<path d="M42.0005 42C41.5083 42.4921 40.8407 42.7686 40.1447 42.7686C39.4486 42.7686 38.7811 42.4921 38.2888 42L31.5005 35.2117L24.7123 42C24.2172 42.4782 23.5541 42.7427 22.8659 42.7368C22.1776 42.7308 21.5192 42.4547 21.0325 41.968C20.5458 41.4813 20.2698 40.8229 20.2638 40.1347C20.2578 39.4464 20.5224 38.7833 21.0005 38.2882L27.7888 31.5L21.0005 24.7117C20.5224 24.2167 20.2578 23.5536 20.2638 22.8653C20.2698 22.177 20.5458 21.5187 21.0325 21.032C21.5192 20.5453 22.1776 20.2692 22.8659 20.2632C23.5541 20.2572 24.2172 20.5218 24.7123 21L31.5005 27.7882L38.2888 21C38.7839 20.5218 39.447 20.2572 40.1352 20.2632C40.8235 20.2692 41.4819 20.5453 41.9686 21.032C42.4553 21.5187 42.7313 22.177 42.7373 22.8653C42.7433 23.5536 42.4787 24.2167 42.0005 24.7117L35.2123 31.5L42.0005 38.2882C42.4927 38.7805 42.7691 39.4481 42.7691 40.1441C42.7691 40.8402 42.4927 41.5077 42.0005 42Z" fill="#372E24"/>
<path d="M31.5 63C25.2699 63 19.1797 61.1526 13.9995 57.6913C8.8194 54.23 4.78197 49.3104 2.39781 43.5545C0.0136485 37.7987 -0.610157 31.4651 0.605278 25.3547C1.82071 19.2443 4.8208 13.6315 9.22615 9.22614C13.6315 4.82078 19.2443 1.8207 25.3547 0.605267C31.4651 -0.610168 37.7987 0.0136375 43.5545 2.3978C49.3104 4.78196 54.23 8.81939 57.6913 13.9995C61.1526 19.1797 63 25.2699 63 31.5C62.991 39.8515 59.6693 47.8584 53.7639 53.7639C47.8585 59.6693 39.8516 62.991 31.5 63V63ZM31.5 5.25C26.3083 5.25 21.2331 6.78954 16.9163 9.67392C12.5995 12.5583 9.23498 16.658 7.24818 21.4546C5.26138 26.2511 4.74154 31.5291 5.7544 36.6211C6.76726 41.7131 9.26733 46.3904 12.9385 50.0616C16.6096 53.7327 21.2869 56.2328 26.3789 57.2456C31.4709 58.2585 36.7489 57.7386 41.5455 55.7518C46.342 53.765 50.4417 50.4005 53.3261 46.0837C56.2105 41.7669 57.75 36.6918 57.75 31.5C57.7424 24.5404 54.9743 17.8681 50.0531 12.9469C45.1319 8.02571 38.4596 5.25764 31.5 5.25Z" fill="#372E24"/>
</g>
<defs>
<clipPath id="clip0_51_2159">
<rect width="63" height="63" fill="white" transform="matrix(1 0 0 -1 0 63)"/>
</clipPath>
</defs>
</svg>
