<svg width="43" height="39" viewBox="0 0 43 39" fill="none" xmlns="http://www.w3.org/2000/svg">
<path d="M31.355 0.434631C29.3375 0.466012 27.364 1.0292 25.6338 2.06733C23.9036 3.10545 22.478 4.58175 21.5009 6.34713C20.5238 4.58175 19.0981 3.10545 17.3679 2.06733C15.6377 1.0292 13.6642 0.466012 11.6467 0.434631C8.43055 0.574365 5.40042 1.9813 3.21831 4.34805C1.03619 6.7148 -0.120525 9.84899 0.000861144 13.0659C0.000861144 21.2126 8.57578 30.11 15.7675 36.1426C17.3733 37.4919 19.4035 38.2317 21.5009 38.2317C23.5983 38.2317 25.6285 37.4919 27.2342 36.1426C34.4259 30.11 43.0009 21.2126 43.0009 13.0659C43.1222 9.84899 41.9655 6.7148 39.7834 4.34805C37.6013 1.9813 34.5712 0.574365 31.355 0.434631ZM24.9319 33.4013C23.9715 34.21 22.7564 34.6535 21.5009 34.6535C20.2453 34.6535 19.0302 34.21 18.0698 33.4013C8.86424 25.6774 3.58419 18.2671 3.58419 13.0659C3.46172 10.7989 4.2406 8.57548 5.75097 6.88051C7.26134 5.18554 9.38066 4.15655 11.6467 4.01796C13.9127 4.15655 16.032 5.18554 17.5424 6.88051C19.0528 8.57548 19.8317 10.7989 19.7092 13.0659C19.7092 13.5411 19.898 13.9968 20.234 14.3328C20.57 14.6688 21.0257 14.8575 21.5009 14.8575C21.976 14.8575 22.4318 14.6688 22.7678 14.3328C23.1038 13.9968 23.2925 13.5411 23.2925 13.0659C23.1701 10.7989 23.9489 8.57548 25.4593 6.88051C26.9697 5.18554 29.089 4.15655 31.355 4.01796C33.6211 4.15655 35.7404 5.18554 37.2508 6.88051C38.7611 8.57548 39.54 10.7989 39.4175 13.0659C39.4175 18.2671 34.1375 25.6774 24.9319 33.3941V33.4013Z" fill="black"/>
</svg>
