<svg width="43" height="43" viewBox="0 0 43 43" fill="none" xmlns="http://www.w3.org/2000/svg">
<g clip-path="url(#clip0_187_1104)">
<path d="M11.645 3.43457C13.6625 3.46595 15.636 4.02914 17.3662 5.06726C19.0964 6.10539 20.522 7.58169 21.4991 9.34707C22.4762 7.58169 23.9019 6.10539 25.6321 5.06726C27.3623 4.02914 29.3358 3.46595 31.3533 3.43457C34.5695 3.5743 37.5996 4.98123 39.7817 7.34799C41.9638 9.71474 43.1205 12.8489 42.9991 16.0658C42.9991 24.2125 34.4242 33.1099 27.2325 39.1425C25.6267 40.4918 23.5965 41.2316 21.4991 41.2316C19.4017 41.2316 17.3715 40.4918 15.7658 39.1425C8.57406 33.1099 -0.000858307 24.2125 -0.000858307 16.0658C-0.122246 12.8489 1.03447 9.71474 3.21658 7.34799C5.3987 4.98123 8.42883 3.5743 11.645 3.43457Z" fill="#372E24"/>
</g>
<defs>
<clipPath id="clip0_187_1104">
<rect width="43" height="43" fill="white" transform="matrix(-1 0 0 1 43 0)"/>
</clipPath>
</defs>
</svg>
