<svg width="43" height="42" viewBox="0 0 43 42" fill="none" xmlns="http://www.w3.org/2000/svg">
<path d="M42.6985 15.5552C42.3319 14.3781 41.5996 13.3512 40.6098 12.6265C39.6201 11.9017 38.4254 11.5176 37.2025 11.5308H29.3733L26.9953 4.05334C26.6213 2.87632 25.8865 1.84953 24.8968 1.12104C23.9071 0.392549 22.7136 0 21.4885 0C20.2634 0 19.0699 0.392549 18.0802 1.12104C17.0905 1.84953 16.3557 2.87632 15.9817 4.05334L13.6037 11.5308H5.77452C4.55551 11.5326 3.36822 11.9229 2.38224 12.6461C1.39627 13.3693 0.662041 14.3884 0.284434 15.5577C-0.093173 16.7271 -0.0948443 17.9869 0.279659 19.1573C0.654162 20.3276 1.38568 21.3487 2.36974 22.0745L8.74206 26.7751L6.31929 34.3448C5.92776 35.5188 5.9228 36.7891 6.30514 37.9662C6.68749 39.1433 7.43667 40.1642 8.441 40.8767C9.42812 41.6121 10.6244 42.0061 11.8514 41.9999C13.0785 41.9937 14.2708 41.5877 15.2506 40.8424L21.4885 36.2105L27.7282 40.837C28.7135 41.5682 29.9033 41.9653 31.1265 41.9713C32.3497 41.9773 33.5432 41.5919 34.5356 40.8704C35.5279 40.1489 36.2679 39.1286 36.6493 37.956C37.0306 36.7835 37.0335 35.5191 36.6577 34.3448L34.2349 26.7751L40.6144 22.0745C41.6097 21.3578 42.3498 20.3368 42.7252 19.1626C43.1005 17.9885 43.0912 16.7236 42.6985 15.5552ZM38.4999 19.1548L31.0739 24.6309C30.7688 24.8554 30.5419 25.1713 30.4254 25.5337C30.3089 25.896 30.3088 26.2862 30.4252 26.6485L33.2475 35.453C33.3904 35.8996 33.3891 36.3803 33.2441 36.8261C33.099 37.272 32.8175 37.6599 32.4401 37.9341C32.0627 38.2084 31.6089 38.3549 31.1438 38.3525C30.6787 38.3501 30.2263 38.1989 29.8517 37.9208L22.5494 32.4971C22.2418 32.2692 21.8701 32.1462 21.4885 32.1462C21.1069 32.1462 20.7352 32.2692 20.4276 32.4971L13.1253 37.9208C12.7509 38.2027 12.2973 38.3569 11.8301 38.3612C11.363 38.3655 10.9067 38.2196 10.5273 37.9446C10.1479 37.6696 9.86519 37.2799 9.72012 36.8319C9.57505 36.3839 9.57518 35.9009 9.72048 35.453L12.5518 26.6485C12.6682 26.2862 12.6681 25.896 12.5516 25.5337C12.4351 25.1713 12.2081 24.8554 11.9031 24.6309L4.47712 19.1548C4.10314 18.8785 3.82525 18.4901 3.68316 18.045C3.54107 17.5999 3.54204 17.1208 3.68593 16.6763C3.82982 16.2318 4.10927 15.8445 4.48436 15.5698C4.85946 15.2951 5.31101 15.147 5.77452 15.1466H14.9137C15.2931 15.1466 15.6627 15.0251 15.9692 14.7997C16.2758 14.5742 16.5036 14.2564 16.6197 13.892L19.3972 5.15797C19.5398 4.71103 19.8193 4.32126 20.1954 4.04475C20.5715 3.76825 21.0249 3.61928 21.4903 3.61928C21.9557 3.61928 22.409 3.76825 22.7852 4.04475C23.1613 4.32126 23.4408 4.71103 23.5833 5.15797L26.3609 13.892C26.477 14.2564 26.7047 14.5742 27.0113 14.7997C27.3179 15.0251 27.6875 15.1466 28.0669 15.1466H37.206C37.6696 15.147 38.1211 15.2951 38.4962 15.5698C38.8713 15.8445 39.1508 16.2318 39.2946 16.6763C39.4385 17.1208 39.4395 17.5999 39.2974 18.045C39.1553 18.4901 38.8774 18.8785 38.5035 19.1548H38.4999Z" fill="#372E24"/>
</svg>
