<svg width="31" height="32" viewBox="0 0 31 32" fill="none" xmlns="http://www.w3.org/2000/svg">
<g clipPath="url(#clip0_158_1461)">
<path d="M22.6026 2.55615C21.1481 2.57951 19.7254 2.99862 18.478 3.77118C17.2307 4.54374 16.2029 5.64238 15.4984 6.95615C14.794 5.64238 13.7662 4.54374 12.5189 3.77118C11.2715 2.99862 9.84876 2.57951 8.39427 2.55615C6.07566 2.66014 3.89114 3.70716 2.31799 5.46846C0.744843 7.22977 -0.0890705 9.56219 -0.00155941 11.9562C-0.00155941 18.0188 6.18036 24.6402 11.3651 29.1295C12.5227 30.1337 13.9864 30.6842 15.4984 30.6842C17.0105 30.6842 18.4742 30.1337 19.6318 29.1295C24.8165 24.6402 30.9984 18.0188 30.9984 11.9562C31.086 9.56219 30.252 7.22977 28.6789 5.46846C27.1057 3.70716 24.9212 2.66014 22.6026 2.55615ZM17.972 27.0895C17.2796 27.6913 16.4036 28.0214 15.4984 28.0214C14.5933 28.0214 13.7173 27.6913 13.0249 27.0895C6.38832 21.3415 2.58177 15.8268 2.58177 11.9562C2.49348 10.2691 3.055 8.61446 4.14387 7.35309C5.23274 6.09171 6.76062 5.32595 8.39427 5.22282C10.0279 5.32595 11.5558 6.09171 12.6447 7.35309C13.7336 8.61446 14.2951 10.2691 14.2068 11.9562C14.2068 12.3098 14.3429 12.6489 14.5851 12.899C14.8273 13.149 15.1559 13.2895 15.4984 13.2895C15.841 13.2895 16.1696 13.149 16.4118 12.899C16.654 12.6489 16.7901 12.3098 16.7901 11.9562C16.7018 10.2691 17.2633 8.61446 18.3522 7.35309C19.4411 6.09171 20.969 5.32595 22.6026 5.22282C24.2363 5.32595 25.7641 6.09171 26.853 7.35309C27.9419 8.61446 28.5034 10.2691 28.4151 11.9562C28.4151 15.8268 24.6086 21.3415 17.972 27.0842V27.0895Z" fill="#372E24"/>
</g>
<defs>
<clipPath id="clip0_158_1461">
<rect width="31" height="32" fill="white"/>
</clipPath>
</defs>
</svg>
