<svg width="31" height="32" viewBox="0 0 31 32" fill="none" xmlns="http://www.w3.org/2000/svg">
<g clipPath="url(#clip0_158_1463)">
<path d="M30.6199 29.7242L22.91 21.7655C25.011 19.113 26.044 15.7283 25.7953 12.3116C25.5467 8.89491 24.0353 5.70757 21.5738 3.40889C19.1124 1.11021 15.8892 -0.123946 12.571 -0.0383037C9.25277 0.0473387 6.09337 1.44623 3.74629 3.86902C1.39922 6.2918 0.0440436 9.55312 -0.0389225 12.9784C-0.121889 16.4037 1.0737 19.7308 3.30055 22.2716C5.52739 24.8125 8.61512 26.3726 11.9251 26.6293C15.235 26.886 18.5139 25.8197 21.0835 23.6509L28.7935 31.6095C29.0371 31.8524 29.3634 31.9868 29.7021 31.9838C30.0407 31.9807 30.3647 31.8405 30.6042 31.5933C30.8437 31.3461 30.9795 31.0117 30.9825 30.6621C30.9854 30.3125 30.8552 29.9757 30.6199 29.7242ZM12.915 24.0002C10.8713 24.0002 8.87346 23.3746 7.17415 22.2025C5.47484 21.0305 4.15039 19.3646 3.36829 17.4155C2.58618 15.4664 2.38155 13.3217 2.78026 11.2526C3.17897 9.18344 4.16313 7.28282 5.60827 5.79106C7.05341 4.2993 8.89464 3.2834 10.8991 2.87182C12.9036 2.46025 14.9813 2.67148 16.8694 3.47882C18.7576 4.28615 20.3715 5.65332 21.5069 7.40745C22.6423 9.16157 23.2484 11.2239 23.2484 13.3335C23.2453 16.1615 22.1556 18.8728 20.2184 20.8725C18.2812 22.8722 15.6547 23.997 12.915 24.0002Z" fill="#372E24"/>
</g>
<defs>
<clipPath id="clip0_158_1463">
<rect width="31" height="32" fill="white"/>
</clipPath>
</defs>
</svg>
