<svg width="31" height="32" viewBox="0 0 31 32" fill="none" xmlns="http://www.w3.org/2000/svg">
<g clipPath="url(#clip0_158_1459)">
<path d="M27.125 8H23.25C23.25 5.87827 22.4335 3.84344 20.9801 2.34315C19.5267 0.842855 17.5554 0 15.5 0C13.4446 0 11.4733 0.842855 10.0199 2.34315C8.56652 3.84344 7.75 5.87827 7.75 8H3.875C2.84729 8 1.86166 8.42143 1.13496 9.17157C0.408258 9.92172 0 10.9391 0 12L0 25.3333C0.00205098 27.1008 0.683139 28.7953 1.89387 30.045C3.1046 31.2948 4.74611 31.9979 6.45833 32H24.5417C26.2539 31.9979 27.8954 31.2948 29.1061 30.045C30.3169 28.7953 30.9979 27.1008 31 25.3333V12C31 10.9391 30.5917 9.92172 29.865 9.17157C29.1383 8.42143 28.1527 8 27.125 8ZM15.5 2.66667C16.8703 2.66667 18.1844 3.22857 19.1534 4.22876C20.1223 5.22896 20.6667 6.58551 20.6667 8H10.3333C10.3333 6.58551 10.8777 5.22896 11.8466 4.22876C12.8156 3.22857 14.1297 2.66667 15.5 2.66667ZM28.4167 25.3333C28.4167 26.3942 28.0084 27.4116 27.2817 28.1618C26.555 28.9119 25.5694 29.3333 24.5417 29.3333H6.45833C5.43062 29.3333 4.445 28.9119 3.71829 28.1618C2.99159 27.4116 2.58333 26.3942 2.58333 25.3333V12C2.58333 11.6464 2.71942 11.3072 2.96165 11.0572C3.20389 10.8071 3.53243 10.6667 3.875 10.6667H7.75V13.3333C7.75 13.687 7.88609 14.0261 8.12832 14.2761C8.37055 14.5262 8.69909 14.6667 9.04167 14.6667C9.38424 14.6667 9.71278 14.5262 9.95501 14.2761C10.1972 14.0261 10.3333 13.687 10.3333 13.3333V10.6667H20.6667V13.3333C20.6667 13.687 20.8028 14.0261 21.045 14.2761C21.2872 14.5262 21.6158 14.6667 21.9583 14.6667C22.3009 14.6667 22.6294 14.5262 22.8717 14.2761C23.1139 14.0261 23.25 13.687 23.25 13.3333V10.6667H27.125C27.4676 10.6667 27.7961 10.8071 28.0383 11.0572C28.2806 11.3072 28.4167 11.6464 28.4167 12V25.3333Z" fill="#372E24"/>
</g>
<defs>
<clipPath id="clip0_158_1459">
<rect width="31" height="32" fill="white"/>
</clipPath>
</defs>
</svg>
