<svg width="31" height="32" viewBox="0 0 31 32" fill="none" xmlns="http://www.w3.org/2000/svg">
<g clipPath="url(#clip0_36_2404)">
<path d="M9.04167 29.3333H6.45833C5.43062 29.3333 4.445 28.9119 3.71829 28.1618C2.99159 27.4116 2.58333 26.3942 2.58333 25.3333V6.66667C2.58333 5.6058 2.99159 4.58839 3.71829 3.83824C4.445 3.08809 5.43062 2.66667 6.45833 2.66667H9.04167C9.38424 2.66667 9.71278 2.52619 9.95501 2.27614C10.1972 2.02609 10.3333 1.68696 10.3333 1.33333C10.3333 0.979711 10.1972 0.640573 9.95501 0.390524C9.71278 0.140476 9.38424 0 9.04167 0L6.45833 0C4.74611 0.00211714 3.1046 0.705176 1.89387 1.95496C0.683139 3.20474 0.00205098 4.89921 0 6.66667L0 25.3333C0.00205098 27.1008 0.683139 28.7953 1.89387 30.045C3.1046 31.2948 4.74611 31.9979 6.45833 32H9.04167C9.38424 32 9.71278 31.8595 9.95501 31.6095C10.1972 31.3594 10.3333 31.0203 10.3333 30.6667C10.3333 30.313 10.1972 29.9739 9.95501 29.7239C9.71278 29.4738 9.38424 29.3333 9.04167 29.3333Z" fill="#372E24"/>
<path d="M29.7094 14.6668L9.3308 14.7094C9.44409 14.4922 9.58578 14.2921 9.75189 14.1148L14.7623 8.94277C14.8856 8.81978 14.984 8.67265 15.0517 8.50998C15.1194 8.34731 15.1551 8.17235 15.1565 7.99531C15.158 7.81827 15.1254 7.6427 15.0604 7.47884C14.9955 7.31497 14.8996 7.1661 14.7783 7.04091C14.657 6.91572 14.5128 6.81672 14.354 6.74968C14.1953 6.68264 14.0252 6.6489 13.8537 6.65044C13.6822 6.65198 13.5127 6.68876 13.3551 6.75864C13.1975 6.82852 13.055 6.93009 12.9358 7.05744L7.92289 12.2294C6.95429 13.2296 6.41016 14.5859 6.41016 16.0001C6.41016 17.4143 6.95429 18.7706 7.92289 19.7708L12.9333 24.9428C13.0524 25.0701 13.1949 25.1717 13.3525 25.2416C13.5101 25.3115 13.6796 25.3482 13.8511 25.3498C14.0226 25.3513 14.1927 25.3176 14.3515 25.2505C14.5102 25.1835 14.6544 25.0845 14.7757 24.9593C14.897 24.8341 14.9929 24.6852 15.0578 24.5214C15.1228 24.3575 15.1555 24.1819 15.154 24.0049C15.1525 23.8279 15.1168 23.6529 15.0491 23.4902C14.9814 23.3276 14.883 23.1804 14.7597 23.0574L9.7493 17.8854C9.60474 17.7318 9.47855 17.5608 9.37343 17.3761L29.7094 17.3334C30.052 17.3334 30.3805 17.193 30.6228 16.9429C30.865 16.6929 31.0011 16.3537 31.0011 16.0001C31.0011 15.6465 30.865 15.3073 30.6228 15.0573C30.3805 14.8073 30.052 14.6668 29.7094 14.6668Z" fill="#372E24"/>
</g>
<defs>
<clipPath id="clip0_36_2404">
<rect width="31" height="32" fill="white"/>
</clipPath>
</defs>
</svg>
