<svg width="26" height="26" viewBox="0 0 26 26" fill="none" xmlns="http://www.w3.org/2000/svg">
<g clipPath="url(#clip0_362_882)">
<path d="M18.4167 0C18.1294 0 17.8538 0.114137 17.6506 0.317301C17.4475 0.520465 17.3333 0.796015 17.3333 1.08333C17.3333 4.27808 14.5351 5.41667 11.9167 5.41667H4.33333C3.18406 5.41667 2.08186 5.87321 1.2692 6.68587C0.456546 7.49853 0 8.60073 0 9.75L0 11.9167C0.00236618 12.5653 0.151084 13.205 0.435069 13.7882C0.719055 14.3714 1.13099 14.8829 1.64017 15.2848L5.50983 23.9211C5.78504 24.5398 6.23369 25.0654 6.80146 25.4344C7.36924 25.8033 8.03179 25.9998 8.70892 26C9.24767 25.9997 9.77778 25.8646 10.251 25.6071C10.7242 25.3495 11.1255 24.9778 11.4184 24.5255C11.7112 24.0733 11.8864 23.5551 11.9278 23.0179C11.9692 22.4808 11.8756 21.9418 11.6556 21.45L9.27225 16.25H11.9167C14.5351 16.25 17.3333 17.3886 17.3333 20.5833C17.3333 20.8707 17.4475 21.1462 17.6506 21.3494C17.8538 21.5525 18.1294 21.6667 18.4167 21.6667C18.704 21.6667 18.9795 21.5525 19.1827 21.3494C19.3859 21.1462 19.5 20.8707 19.5 20.5833V1.08333C19.5 0.796015 19.3859 0.520465 19.1827 0.317301C18.9795 0.114137 18.704 0 18.4167 0V0ZM9.68175 22.3373C9.75351 22.4993 9.78369 22.6767 9.76955 22.8534C9.75541 23.03 9.69741 23.2004 9.60079 23.3489C9.50418 23.4975 9.37201 23.6196 9.21627 23.7042C9.06053 23.7888 8.88614 23.8332 8.70892 23.8333C8.45043 23.8332 8.19755 23.7579 7.98101 23.6168C7.76447 23.4756 7.59357 23.2746 7.48908 23.0382L4.44708 16.25H6.88892L9.68175 22.3373ZM17.3333 15.8167C15.7856 14.6241 13.8692 14.0109 11.9167 14.0833H4.33333C3.7587 14.0833 3.2076 13.8551 2.80127 13.4487C2.39494 13.0424 2.16667 12.4913 2.16667 11.9167V9.75C2.16667 9.17536 2.39494 8.62426 2.80127 8.21794C3.2076 7.81161 3.7587 7.58333 4.33333 7.58333H11.9167C13.8686 7.65732 15.7848 7.04603 17.3333 5.85542V15.8167ZM25.8917 16.7397C25.8281 16.867 25.7401 16.9806 25.6326 17.074C25.5252 17.1673 25.4003 17.2385 25.2653 17.2836C25.1303 17.3287 24.9877 17.3467 24.8458 17.3367C24.7038 17.3266 24.5652 17.2887 24.4378 17.225L22.2712 16.1417C22.014 16.0132 21.8184 15.7879 21.7274 15.5153C21.6364 15.2426 21.6574 14.945 21.7858 14.6878C21.9143 14.4307 22.1396 14.2351 22.4122 14.1441C22.6849 14.0531 22.9825 14.0741 23.2397 14.2025L25.4063 15.2858C25.6622 15.4142 25.8568 15.6386 25.9477 15.9099C26.0387 16.1813 26.0185 16.4777 25.8917 16.7343V16.7397ZM21.7858 6.98967C21.7222 6.86235 21.6842 6.72374 21.6742 6.58175C21.6641 6.43977 21.6822 6.29719 21.7272 6.16218C21.7723 6.02716 21.8435 5.90235 21.9369 5.79488C22.0302 5.68741 22.1438 5.59938 22.2712 5.53583L24.4378 4.4525C24.695 4.32407 24.9926 4.30305 25.2653 4.39407C25.5379 4.48509 25.7632 4.68068 25.8917 4.93783C26.0201 5.19498 26.0411 5.49262 25.9501 5.76527C25.8591 6.03791 25.6635 6.26324 25.4063 6.39167L23.2397 7.475C23.1124 7.53865 22.9737 7.57659 22.8318 7.58665C22.6898 7.59671 22.5472 7.57868 22.4122 7.53361C22.2772 7.48854 22.1524 7.4173 22.0449 7.32397C21.9374 7.23063 21.8494 7.11704 21.7858 6.98967V6.98967ZM21.6667 10.8333C21.6667 10.546 21.7808 10.2705 21.984 10.0673C22.1871 9.86414 22.4627 9.75 22.75 9.75H24.9167C25.204 9.75 25.4795 9.86414 25.6827 10.0673C25.8859 10.2705 26 10.546 26 10.8333C26 11.1207 25.8859 11.3962 25.6827 11.5994C25.4795 11.8025 25.204 11.9167 24.9167 11.9167H22.75C22.4627 11.9167 22.1871 11.8025 21.984 11.5994C21.7808 11.3962 21.6667 11.1207 21.6667 10.8333Z" fill="black"/>
</g>
<defs>
<clipPath id="clip0_362_882">
<rect width="26" height="26" fill="white"/>
</clipPath>
</defs>
</svg>
