<svg width="26" height="26" viewBox="0 0 26 26" fill="none" xmlns="http://www.w3.org/2000/svg">
<path d="M25.1975 17.55L22.3809 7.39811C21.7794 5.22648 20.4688 3.31843 18.6578 1.97763C16.8467 0.636842 14.6392 -0.059642 12.3865 -0.000968996C10.1339 0.057704 7.96565 0.868162 6.22682 2.30142C4.488 3.73467 3.27854 5.70836 2.79094 7.90836L0.612358 17.7125C0.506942 18.1875 0.509513 18.6801 0.619882 19.1539C0.730251 19.6278 0.945602 20.0708 1.25005 20.4503C1.55449 20.8299 1.94026 21.1362 2.37889 21.3467C2.81752 21.5572 3.29782 21.6666 3.78436 21.6667H7.69194C7.94058 22.8912 8.6049 23.992 9.57233 24.7828C10.5398 25.5735 11.7508 26.0055 13.0003 26.0055C14.2497 26.0055 15.4608 25.5735 16.4282 24.7828C17.3957 23.992 18.06 22.8912 18.3086 21.6667H22.0678C22.5684 21.6665 23.0622 21.5506 23.5107 21.3281C23.9591 21.1056 24.3501 20.7825 24.6532 20.3841C24.9562 19.9856 25.1631 19.5225 25.2577 19.0309C25.3523 18.5393 25.3321 18.0325 25.1986 17.55H25.1975ZM13.0003 23.8334C12.3305 23.8306 11.6779 23.6209 11.1319 23.2331C10.5858 22.8453 10.1729 22.2982 9.94961 21.6667H16.0509C15.8277 22.2982 15.4148 22.8453 14.8687 23.2331C14.3226 23.6209 13.6701 23.8306 13.0003 23.8334ZM22.929 19.0721C22.828 19.2061 22.6969 19.3146 22.5465 19.3889C22.396 19.4632 22.2302 19.5012 22.0624 19.5H3.78436C3.62214 19.5 3.462 19.4635 3.31576 19.3933C3.16952 19.3231 3.0409 19.221 2.93942 19.0945C2.83793 18.9679 2.76615 18.8202 2.72939 18.6622C2.69263 18.5042 2.69182 18.34 2.72702 18.1816L4.90561 8.37744C5.28949 6.65083 6.23952 5.10209 7.60469 3.97743C8.96985 2.85276 10.6718 2.21671 12.4399 2.17039C14.2081 2.12407 15.941 2.67013 17.3632 3.72178C18.7854 4.77343 19.8152 6.2703 20.2889 7.97444L23.1056 18.1264C23.1516 18.2869 23.1596 18.4559 23.1289 18.6201C23.0983 18.7842 23.0298 18.939 22.929 19.0721Z" fill="black"/>
</svg>
