<svg width="26" height="26" viewBox="0 0 26 26" fill="none" xmlns="http://www.w3.org/2000/svg">
<g clipPath="url(#clip0_362_900)">
<path d="M18.4167 0H21.6667C22.8159 0 23.9181 0.456546 24.7308 1.2692C25.5435 2.08186 26 3.18406 26 4.33333V7.58333C26 8.73261 25.5435 9.83481 24.7308 10.6475C23.9181 11.4601 22.8159 11.9167 21.6667 11.9167H18.4167C17.2674 11.9167 16.1652 11.4601 15.3525 10.6475C14.5399 9.83481 14.0833 8.73261 14.0833 7.58333V4.33333C14.0833 3.18406 14.5399 2.08186 15.3525 1.2692C16.1652 0.456546 17.2674 0 18.4167 0V0ZM16.25 7.58333C16.25 8.15797 16.4783 8.70907 16.8846 9.1154C17.2909 9.52173 17.842 9.75 18.4167 9.75H21.6667C22.2413 9.75 22.7924 9.52173 23.1987 9.1154C23.6051 8.70907 23.8333 8.15797 23.8333 7.58333V4.33333C23.8333 3.7587 23.6051 3.2076 23.1987 2.80127C22.7924 2.39494 22.2413 2.16667 21.6667 2.16667H18.4167C17.842 2.16667 17.2909 2.39494 16.8846 2.80127C16.4783 3.2076 16.25 3.7587 16.25 4.33333V7.58333Z" fill="#372E24"/>
<path d="M4.33073 0H7.58073C8.73 0 9.8322 0.456546 10.6449 1.2692C11.4575 2.08186 11.9141 3.18406 11.9141 4.33333V7.58333C11.9141 8.73261 11.4575 9.83481 10.6449 10.6475C9.8322 11.4601 8.73 11.9167 7.58073 11.9167H4.33073C3.18146 11.9167 2.07926 11.4601 1.2666 10.6475C0.453943 9.83481 -0.0026046 8.73261 -0.0026046 7.58333V4.33333C-0.0026046 3.18406 0.453943 2.08186 1.2666 1.2692C2.07926 0.456546 3.18146 0 4.33073 0V0ZM2.16406 7.58333C2.16406 8.15797 2.39234 8.70907 2.79866 9.1154C3.20499 9.52173 3.75609 9.75 4.33073 9.75H7.58073C8.15536 9.75 8.70646 9.52173 9.11279 9.1154C9.51912 8.70907 9.7474 8.15797 9.7474 7.58333V4.33333C9.7474 3.7587 9.51912 3.2076 9.11279 2.80127C8.70646 2.39494 8.15536 2.16667 7.58073 2.16667H4.33073C3.75609 2.16667 3.20499 2.39494 2.79866 2.80127C2.39234 3.2076 2.16406 3.7587 2.16406 4.33333V7.58333Z" fill="#372E24"/>
<path d="M18.4167 14.0833H21.6667C22.8159 14.0833 23.9181 14.5398 24.7308 15.3525C25.5435 16.1651 26 17.2673 26 18.4166V21.6666C26 22.8159 25.5435 23.9181 24.7308 24.7307C23.9181 25.5434 22.8159 25.9999 21.6667 25.9999H18.4167C17.2674 25.9999 16.1652 25.5434 15.3525 24.7307C14.5399 23.9181 14.0833 22.8159 14.0833 21.6666V18.4166C14.0833 17.2673 14.5399 16.1651 15.3525 15.3525C16.1652 14.5398 17.2674 14.0833 18.4167 14.0833V14.0833ZM16.25 21.6666C16.25 22.2412 16.4783 22.7923 16.8846 23.1986C17.2909 23.605 17.842 23.8333 18.4167 23.8333H21.6667C22.2413 23.8333 22.7924 23.605 23.1987 23.1986C23.6051 22.7923 23.8333 22.2412 23.8333 21.6666V18.4166C23.8333 17.8419 23.6051 17.2908 23.1987 16.8845C22.7924 16.4782 22.2413 16.2499 21.6667 16.2499H18.4167C17.842 16.2499 17.2909 16.4782 16.8846 16.8845C16.4783 17.2908 16.25 17.8419 16.25 18.4166V21.6666Z" fill="#372E24"/>
<path d="M4.33073 14.0833H7.58073C8.73 14.0833 9.8322 14.5398 10.6449 15.3525C11.4575 16.1651 11.9141 17.2673 11.9141 18.4166V21.6666C11.9141 22.8159 11.4575 23.9181 10.6449 24.7307C9.8322 25.5434 8.73 25.9999 7.58073 25.9999H4.33073C3.18146 25.9999 2.07926 25.5434 1.2666 24.7307C0.453943 23.9181 -0.0026046 22.8159 -0.0026046 21.6666V18.4166C-0.0026046 17.2673 0.453943 16.1651 1.2666 15.3525C2.07926 14.5398 3.18146 14.0833 4.33073 14.0833V14.0833ZM2.16406 21.6666C2.16406 22.2412 2.39234 22.7923 2.79866 23.1986C3.20499 23.605 3.75609 23.8333 4.33073 23.8333H7.58073C8.15536 23.8333 8.70646 23.605 9.11279 23.1986C9.51912 22.7923 9.7474 22.2412 9.7474 21.6666V18.4166C9.7474 17.8419 9.51912 17.2908 9.11279 16.8845C8.70646 16.4782 8.15536 16.2499 7.58073 16.2499H4.33073C3.75609 16.2499 3.20499 16.4782 2.79866 16.8845C2.39234 17.2908 2.16406 17.8419 2.16406 18.4166V21.6666Z" fill="#372E24"/>
</g>
<defs>
<clipPath id="clip0_362_900">
<rect width="26" height="26" fill="white" transform="matrix(-1 0 0 1 26 0)"/>
</clipPath>
</defs>
</svg>
