<svg width="12" height="25" viewBox="0 0 12 25" fill="none" xmlns="http://www.w3.org/2000/svg">
<path d="M10.8856 25.0001C10.7485 25.0009 10.6126 24.9746 10.4857 24.9228C10.3588 24.871 10.2434 24.7946 10.146 24.698L1.63561 16.1876C1.15058 15.7038 0.765757 15.1291 0.50319 14.4963C0.240623 13.8635 0.105469 13.1852 0.105469 12.5001C0.105469 11.815 0.240623 11.1367 0.50319 10.5039C0.765757 9.87117 1.15058 9.29642 1.63561 8.81261L10.146 0.302195C10.2432 0.205072 10.3585 0.128029 10.4854 0.0754662C10.6123 0.0229034 10.7483 -0.00415039 10.8856 -0.00415039C11.023 -0.00415039 11.159 0.0229034 11.2859 0.0754662C11.4128 0.128029 11.5281 0.205072 11.6252 0.302195C11.7223 0.399319 11.7994 0.514621 11.8519 0.641519C11.9045 0.768417 11.9315 0.904425 11.9315 1.04178C11.9315 1.17913 11.9045 1.31514 11.8519 1.44204C11.7994 1.56894 11.7223 1.68424 11.6252 1.78136L3.11478 10.2918C2.52957 10.8777 2.20086 11.672 2.20086 12.5001C2.20086 13.3282 2.52957 14.1225 3.11478 14.7084L11.6252 23.2189C11.7228 23.3157 11.8003 23.4309 11.8532 23.5578C11.9061 23.6848 11.9333 23.8209 11.9333 23.9584C11.9333 24.096 11.9061 24.2321 11.8532 24.359C11.8003 24.486 11.7228 24.6012 11.6252 24.698C11.5279 24.7946 11.4124 24.871 11.2855 24.9228C11.1586 24.9746 11.0227 25.0009 10.8856 25.0001Z" fill="black"/>
</svg>
