<svg width="26" height="26" viewBox="0 0 26 26" fill="none" xmlns="http://www.w3.org/2000/svg">
<g clipPath="url(#clip0_362_891)">
<path d="M20.5833 0H5.41667C3.98061 0.00172018 2.60385 0.572955 1.5884 1.5884C0.572955 2.60385 0.00172018 3.98061 0 5.41667L0 20.5833C0.00172018 22.0194 0.572955 23.3961 1.5884 24.4116C2.60385 25.427 3.98061 25.9983 5.41667 26H20.5833C22.0194 25.9983 23.3961 25.427 24.4116 24.4116C25.427 23.3961 25.9983 22.0194 26 20.5833V5.41667C25.9983 3.98061 25.427 2.60385 24.4116 1.5884C23.3961 0.572955 22.0194 0.00172018 20.5833 0V0ZM5.41667 2.16667H20.5833C21.4453 2.16667 22.2719 2.50908 22.8814 3.11857C23.4909 3.72806 23.8333 4.55471 23.8333 5.41667V20.5833C23.8315 21.0659 23.7204 21.5419 23.5083 21.9754L13.5818 12.0488C13.0787 11.5457 12.4816 11.1466 11.8243 10.8743C11.167 10.602 10.4625 10.4618 9.75108 10.4618C9.03964 10.4618 8.33516 10.602 7.67789 10.8743C7.02061 11.1466 6.42342 11.5457 5.92042 12.0488L2.16667 15.8015V5.41667C2.16667 4.55471 2.50908 3.72806 3.11857 3.11857C3.72806 2.50908 4.55471 2.16667 5.41667 2.16667V2.16667ZM5.41667 23.8333C4.55471 23.8333 3.72806 23.4909 3.11857 22.8814C2.50908 22.2719 2.16667 21.4453 2.16667 20.5833V18.8652L7.45117 13.5807C7.75298 13.2787 8.11135 13.0391 8.5058 12.8756C8.90024 12.7122 9.32303 12.628 9.75 12.628C10.177 12.628 10.5998 12.7122 10.9942 12.8756C11.3886 13.0391 11.747 13.2787 12.0488 13.5807L21.9754 23.5083C21.5419 23.7204 21.0659 23.8315 20.5833 23.8333H5.41667Z" fill="#372E24"/>
<path d="M17.3346 11.3751C18.0846 11.3751 18.8176 11.1527 19.4412 10.7361C20.0647 10.3194 20.5507 9.72726 20.8377 9.03442C21.1247 8.34159 21.1997 7.57921 21.0534 6.8437C20.9071 6.10819 20.546 5.43258 20.0157 4.9023C19.4855 4.37203 18.8099 4.01091 18.0744 3.86461C17.3388 3.7183 16.5765 3.79339 15.8836 4.08037C15.1908 4.36736 14.5986 4.85334 14.182 5.47688C13.7653 6.10042 13.543 6.8335 13.543 7.58342C13.543 8.58903 13.9424 9.55345 14.6535 10.2645C15.3646 10.9756 16.329 11.3751 17.3346 11.3751V11.3751ZM17.3346 5.95842C17.656 5.95842 17.9702 6.05372 18.2374 6.23228C18.5047 6.41084 18.7129 6.66463 18.8359 6.96156C18.9589 7.25849 18.9911 7.58522 18.9284 7.90044C18.8657 8.21566 18.7109 8.5052 18.4837 8.73247C18.2564 8.95973 17.9669 9.11449 17.6517 9.17719C17.3364 9.23989 17.0097 9.20771 16.7128 9.08472C16.4158 8.96173 16.1621 8.75345 15.9835 8.48622C15.8049 8.21899 15.7096 7.90481 15.7096 7.58342C15.7096 7.15244 15.8808 6.73911 16.1856 6.43437C16.4903 6.12962 16.9037 5.95842 17.3346 5.95842V5.95842Z" fill="#372E24"/>
</g>
<defs>
<clipPath id="clip0_362_891">
<rect width="26" height="26" fill="white"/>
</clipPath>
</defs>
</svg>
