<svg width="26" height="26" viewBox="0 0 26 26" fill="none" xmlns="http://www.w3.org/2000/svg">
<g clipPath="url(#clip0_362_888)">
<path d="M21.6138 5.99736L17.8373 2.22086C17.1348 1.51461 16.2993 0.954686 15.379 0.573482C14.4587 0.192278 13.472 -0.00263311 12.4759 2.68625e-05H7.58464C6.14857 0.00174704 4.77182 0.572982 3.75637 1.58843C2.74092 2.60388 2.16969 3.98063 2.16797 5.41669V20.5834C2.16969 22.0194 2.74092 23.3962 3.75637 24.4116C4.77182 25.4271 6.14857 25.9983 7.58464 26H18.418C19.854 25.9983 21.2308 25.4271 22.2462 24.4116C23.2617 23.3962 23.8329 22.0194 23.8346 20.5834V11.3588C23.8373 10.3627 23.6424 9.37593 23.2612 8.45565C22.88 7.53536 22.3201 6.69982 21.6138 5.99736V5.99736ZM20.082 7.52919C20.4124 7.8698 20.6969 8.25222 20.9281 8.66669H16.2513C15.964 8.66669 15.6884 8.55256 15.4853 8.34939C15.2821 8.14623 15.168 7.87068 15.168 7.58336V2.90661C15.5824 3.13778 15.9649 3.42222 16.3055 3.75269L20.082 7.52919ZM21.668 20.5834C21.668 21.4453 21.3256 22.272 20.7161 22.8815C20.1066 23.491 19.2799 23.8334 18.418 23.8334H7.58464C6.72268 23.8334 5.89603 23.491 5.28654 22.8815C4.67705 22.272 4.33464 21.4453 4.33464 20.5834V5.41669C4.33464 4.55474 4.67705 3.72809 5.28654 3.1186C5.89603 2.5091 6.72268 2.16669 7.58464 2.16669H12.4759C12.6546 2.16669 12.8258 2.20136 13.0013 2.21761V7.58336C13.0013 8.44531 13.3437 9.27196 13.9532 9.88146C14.5627 10.491 15.3893 10.8334 16.2513 10.8334H21.6171C21.6333 11.0089 21.668 11.18 21.668 11.3588V20.5834ZM18.119 14.4203C18.3168 14.6284 18.4239 14.9065 18.4168 15.1935C18.4097 15.4805 18.2889 15.753 18.0811 15.951L14.193 19.6495C13.5818 20.2511 12.7576 20.5867 11.9001 20.5833C11.0425 20.5798 10.2211 20.2376 9.6148 19.6311L7.94647 18.1426C7.73184 17.9513 7.60202 17.6825 7.58557 17.3954C7.57742 17.2533 7.59735 17.1109 7.64421 16.9765C7.69108 16.842 7.76397 16.7181 7.85872 16.6119C7.95347 16.5056 8.06822 16.419 8.19643 16.3571C8.32463 16.2952 8.46378 16.2591 8.60592 16.251C8.89299 16.2345 9.17484 16.3328 9.38947 16.5241L11.1066 18.0559C11.2049 18.1663 11.3247 18.2554 11.4587 18.3178C11.5927 18.3801 11.7381 18.4144 11.8859 18.4184C12.0336 18.4225 12.1806 18.3963 12.3179 18.3414C12.4551 18.2865 12.5797 18.2041 12.6839 18.0993L16.5839 14.3824C16.687 14.2838 16.8086 14.2065 16.9417 14.155C17.0747 14.1035 17.2167 14.0788 17.3593 14.0824C17.5019 14.0859 17.6425 14.1176 17.7728 14.1755C17.9032 14.2335 18.0208 14.3167 18.119 14.4203V14.4203Z" fill="black"/>
</g>
<defs>
<clipPath id="clip0_362_888">
<rect width="26" height="26" fill="white"/>
</clipPath>
</defs>
</svg>
