<svg width="37" height="35" viewBox="0 0 37 35" fill="none" xmlns="http://www.w3.org/2000/svg">
<g clipPath="url(#clip0_158_1057)">
<path d="M37 17.6064C37 26.3404 30.2259 33.581 21.3829 34.895V22.6989H25.6826L26.5012 17.6531H21.3829V14.3792C21.3829 12.9981 22.0982 11.6535 24.3892 11.6535H26.7155V7.35728C26.7155 7.35728 24.6035 7.01603 22.5854 7.01603C18.3705 7.01603 15.6171 9.43249 15.6171 13.806V17.6517H10.932V22.6975H15.6171V34.8935C6.77562 33.5781 0 26.3389 0 17.6064C0 7.94207 8.28337 0.106445 18.5 0.106445C28.7166 0.106445 37 7.94061 37 17.6064Z" fill="#F1DAC5"/>
</g>
<defs>
<clipPath id="clip0_158_1057">
<rect width="37" height="35" fill="white"/>
</clipPath>
</defs>
</svg>
