<svg width="36" height="35" viewBox="0 0 36 35" fill="none" xmlns="http://www.w3.org/2000/svg">
<path d="M18 3.15292C22.806 3.15292 23.376 3.17042 25.2735 3.255C27.2355 3.3425 29.256 3.77708 30.6855 5.16687C32.1285 6.56979 32.562 8.51521 32.652 10.4285C32.739 12.2733 32.757 12.8275 32.757 17.5C32.757 22.1725 32.739 22.7267 32.652 24.5715C32.5635 26.4688 32.106 28.4521 30.6855 29.8331C29.2425 31.236 27.243 31.6575 25.2735 31.745C23.376 31.8296 22.806 31.8471 18 31.8471C13.194 31.8471 12.624 31.8296 10.7265 31.745C8.79 31.659 6.723 31.204 5.3145 29.8331C3.879 28.4375 3.438 26.4731 3.348 24.5715C3.261 22.7267 3.243 22.1725 3.243 17.5C3.243 12.8275 3.261 12.2733 3.348 10.4285C3.4365 8.53854 3.8985 6.54354 5.3145 5.16687C6.7545 3.76688 8.763 3.3425 10.7265 3.255C12.624 3.17042 13.194 3.15292 18 3.15292ZM18 0C13.1115 0 12.498 0.0204167 10.578 0.105C7.7955 0.228958 5.0325 0.981458 3.021 2.93708C1.002 4.9 0.2355 7.58042 0.108 10.2842C0.021 12.1508 0 12.7473 0 17.5C0 22.2527 0.021 22.8492 0.108 24.7158C0.2355 27.4181 1.0125 30.1117 3.021 32.0629C5.0385 34.0244 7.8 34.771 10.578 34.895C12.498 34.9796 13.1115 35 18 35C22.8885 35 23.502 34.9796 25.422 34.895C28.203 34.771 30.969 34.0171 32.979 32.0629C34.9995 30.0985 35.7645 27.4196 35.892 24.7158C35.979 22.8492 36 22.2527 36 17.5C36 12.7473 35.979 12.1508 35.892 10.2842C35.7645 7.57896 34.989 4.89125 32.979 2.93708C30.9645 0.978542 28.1955 0.2275 25.422 0.105C23.502 0.0204167 22.8885 0 18 0Z" fill="#F1DAC5"/>
<path d="M18.0008 8.51367C12.8963 8.51367 8.75781 12.5372 8.75781 17.4999C8.75781 22.4626 12.8963 26.4862 18.0008 26.4862C23.1053 26.4862 27.2438 22.4626 27.2438 17.4999C27.2438 12.5372 23.1053 8.51367 18.0008 8.51367ZM18.0008 23.3333C14.6873 23.3333 12.0008 20.7214 12.0008 17.4999C12.0008 14.2785 14.6873 11.6666 18.0008 11.6666C21.3143 11.6666 24.0008 14.2785 24.0008 17.4999C24.0008 20.7214 21.3143 23.3333 18.0008 23.3333Z" fill="#F1DAC5"/>
<path d="M27.6092 10.2576C28.8022 10.2576 29.7692 9.31742 29.7692 8.15762C29.7692 6.99782 28.8022 6.05762 27.6092 6.05762C26.4163 6.05762 25.4492 6.99782 25.4492 8.15762C25.4492 9.31742 26.4163 10.2576 27.6092 10.2576Z" fill="#F1DAC5"/>
</svg>
