<svg width="35" height="35" viewBox="0 0 35 35" fill="none" xmlns="http://www.w3.org/2000/svg">
<path fill-rule="evenodd" clip-rule="evenodd" d="M17.5 0C7.83563 0 0 7.83563 0 17.5C0 27.1644 7.83563 35 17.5 35C27.1644 35 35 27.1644 35 17.5C35 7.83563 27.1644 0 17.5 0ZM25.6113 11.9015C25.3488 14.6679 24.2083 21.3835 23.6294 24.4825C23.3844 25.795 22.9002 26.234 22.4335 26.2763C21.4171 26.3696 20.6456 25.604 19.6613 24.9594C18.1213 23.9502 17.2506 23.3217 15.7558 22.3358C14.0277 21.1969 15.1477 20.5713 16.1321 19.549C16.3902 19.2806 20.8673 15.2075 20.9548 14.8385C20.965 14.7919 20.9767 14.6198 20.8731 14.5294C20.7696 14.439 20.6194 14.4696 20.5115 14.4944C20.3569 14.5294 17.8967 16.1554 13.1294 19.3725C12.4308 19.8523 11.7979 20.0856 11.2306 20.074C10.6065 20.0608 9.40479 19.721 8.51083 19.4294C7.41563 19.0735 6.54354 18.884 6.61938 18.2802C6.65875 17.9652 7.09188 17.6429 7.92021 17.3133C13.0215 15.0908 16.4237 13.6252 18.1256 12.9165C22.9862 10.8952 23.9954 10.5438 24.6546 10.5321C25.48 10.5204 25.6783 11.2015 25.6113 11.9015Z" fill="#F1DAC5"/>
</svg>
