<svg width="37" height="35" viewBox="0 0 37 35" fill="none" xmlns="http://www.w3.org/2000/svg">
<g clipPath="url(#clip0_158_1045)">
<path fill-rule="evenodd" clip-rule="evenodd" d="M31.5452 5.08667C28.0826 1.80833 23.4792 0.00145833 18.5751 0C8.46952 0 0.244729 7.77875 0.240104 17.3425C0.238563 20.3992 1.0834 23.3829 2.68827 26.0138L0.0859375 35L9.8046 32.5879C12.4825 33.9704 15.498 34.6981 18.5659 34.6996H18.5736C28.6777 34.6996 36.904 26.9194 36.9086 17.3556C36.9117 12.7225 35.0062 8.36354 31.5452 5.08667ZM18.5751 31.7698H18.569C15.8341 31.7698 13.1531 31.0742 10.8129 29.7602L10.2563 29.4481L4.48894 30.8787L6.02906 25.5588L5.66677 25.0133C4.14052 22.7179 3.33577 20.0652 3.33731 17.3425C3.3404 9.39458 10.1777 2.92833 18.5829 2.92833C22.6529 2.92833 26.4793 4.43042 29.356 7.15458C32.2328 9.88021 33.8161 13.5013 33.8145 17.3527C33.8099 25.3035 26.9741 31.7698 18.5751 31.7698ZM26.9341 20.9738C26.4762 20.7565 24.2238 19.7079 23.8029 19.5635C23.3836 19.4192 23.0784 19.3463 22.7716 19.7794C22.4648 20.2125 21.5891 21.1896 21.3209 21.4798C21.0541 21.7685 20.7859 21.805 20.328 21.5877C19.8701 21.3704 18.3932 20.914 16.6434 19.4367C15.2821 18.2875 14.3618 16.8685 14.0951 16.434C13.8284 15.9994 14.0673 15.766 14.2955 15.5502C14.5021 15.3563 14.7534 15.0442 14.9831 14.7904C15.2143 14.5396 15.2899 14.3588 15.444 14.0685C15.5966 13.7798 15.5211 13.526 15.4055 13.3088C15.2899 13.0929 14.3741 10.9594 13.9933 10.0917C13.6218 9.24583 13.2441 9.36104 12.9619 9.34792C12.6952 9.33479 12.39 9.33333 12.0832 9.33333C11.7779 9.33333 11.2815 9.44125 10.8622 9.87583C10.4429 10.3104 9.25885 11.359 9.25885 13.491C9.25885 15.6246 10.9007 17.6852 11.1289 17.974C11.3571 18.2627 14.3587 22.6406 18.9544 24.5175C20.0474 24.9638 20.9015 25.2306 21.566 25.4304C22.6636 25.76 23.6626 25.7133 24.452 25.6025C25.3323 25.4785 27.1622 24.554 27.5446 23.5419C27.9269 22.5298 27.9269 21.6606 27.8113 21.4813C27.6972 21.299 27.3919 21.191 26.9341 20.9738Z" fill="#F1DAC5"/>
</g>
<defs>
<clipPath id="clip0_158_1045">
<rect width="37" height="35" fill="white"/>
</clipPath>
</defs>
</svg>
